<?xml version="1.0" encoding="UTF-8" standalone="no"?>
<!-- Created with Inkscape (http://www.inkscape.org/) -->

<svg
   xmlns:dc="http://purl.org/dc/elements/1.1/"
   xmlns:cc="http://creativecommons.org/ns#"
   xmlns:rdf="http://www.w3.org/1999/02/22-rdf-syntax-ns#"
   xmlns:svg="http://www.w3.org/2000/svg"
   xmlns="http://www.w3.org/2000/svg"
   xmlns:sodipodi="http://sodipodi.sourceforge.net/DTD/sodipodi-0.dtd"
   xmlns:inkscape="http://www.inkscape.org/namespaces/inkscape"
   version="1.1"
   id="svg201"
   width="583"
   height="310"
   viewBox="0 0 583 310"
   sodipodi:docname="caflogo.png.svg"
   inkscape:version="0.92.4 (fd57863, 2020-04-02)">
  <metadata
     id="metadata207">
    <rdf:RDF>
      <cc:Work
         rdf:about="">
        <dc:format>image/svg+xml</dc:format>
        <dc:type
           rdf:resource="http://purl.org/dc/dcmitype/StillImage" />
        <dc:title></dc:title>
      </cc:Work>
    </rdf:RDF>
  </metadata>
  <defs
     id="defs205" />
  <sodipodi:namedview
     pagecolor="#ffffff"
     bordercolor="#666666"
     borderopacity="1"
     objecttolerance="10"
     gridtolerance="10"
     guidetolerance="10"
     inkscape:pageopacity="0"
     inkscape:pageshadow="2"
     inkscape:window-width="1296"
     inkscape:window-height="704"
     id="namedview203"
     showgrid="false"
     inkscape:zoom="0.61749571"
     inkscape:cx="212.44693"
     inkscape:cy="129.5116"
     inkscape:window-x="70"
     inkscape:window-y="27"
     inkscape:window-maximized="1"
     inkscape:current-layer="g324" />
  <g
     id="g211"
     transform="translate(11.729054,-4.9972597)">
    <path
       style="fill:#d0d0d0;fill-opacity:1"
       d="M 78.363014,230.75 C 74.903265,228.43782 72.706464,225.93332 70.75,222.07069 L 68,216.64137 68.02196,156.07069 c 0.02452,-67.6238 -0.256571,-64.784778 7.105926,-71.770009 6.729312,-6.38449 5.974691,-6.302926 58.089994,-6.278719 53.40767,0.02481 52.09282,-0.150007 58.92737,7.834626 C 196.93872,91.45668 198,95.718195 198,109.36602 V 121 H 186.5 175 V 111 101 H 133 91 v 55.64246 55.64245 l 6.146691,-0.64245 C 100.52737,211.28911 119.42737,211 139.14669,211 H 175 v -10 -10 h 11.5 11.5 v 12.13398 c 0,6.67369 -0.51364,13.84837 -1.14143,15.94374 -1.59331,5.318 -5.99626,10.29669 -11.31833,12.79836 C 181.12658,233.95075 179.88783,234 132.12391,234 H 83.226029 Z M 384,156 V 78 h 57 57 V 89.5 101 H 452.5 407 v 21.48826 21.48825 l 38.75,0.26175 38.75,0.26174 0.28174,11.75 0.28173,11.75 H 446.03174 407 v 33 33 H 395.5 384 Z"
       id="path227"
       inkscape:connector-curvature="0" />
    <path
       style="fill:#b9b9b9;fill-opacity:1"
       d="M 81.227513,232.25 C 76.929639,229.92954 72.328736,225.49354 70.214537,221.63176 68.646713,218.76799 68.5,213.13787 68.5,155.83638 V 93.17276 l 3.027927,-4.308453 c 1.66536,-2.369649 4.966075,-5.67102 7.334922,-7.33638 L 83.169843,78.5 131.37676,78.214052 c 52.46736,-0.31122 51.70594,-0.381121 58.54637,5.374718 6.07607,5.112677 7.47527,9.394268 7.89579,24.16123 L 198.19623,121 H 186.59811 175 V 111 101 H 133 91 v 55.5 55.5 h 31.34444 c 17.23944,0 36.12396,-0.29244 41.96559,-0.64986 l 10.62116,-0.64986 0.28441,-9.60014 L 175.5,191.5 h 11 11 l 0.3082,11.5 c 0.36335,13.55784 -0.62695,17.68673 -5.54875,23.13458 C 184.87192,234.31169 187.22922,234 132.77424,234 88.670497,234 84.186863,233.84778 81.227513,232.25 Z M 384,156 V 78 h 57.03275 57.03275 L 497.78275,89.25 497.5,100.5 452.25,100.76019 407,101.02038 V 123.01019 145 h 39.03275 39.03275 L 484.78275,156.25 484.5,167.5 445.75,167.76174 407,168.02349 V 201.01174 234 H 395.5 384 Z"
       id="path225"
       inkscape:connector-curvature="0" />
    <path
       style="fill:#a3a3a3;fill-opacity:1"
       d="M 80.941207,232.03001 C 78.983871,230.99513 75.966621,228.7003 74.236208,226.9304 67.985946,220.53748 68,220.69691 68,156.18788 68,115.28042 68.342656,96.588355 69.14143,93.922284 70.795812,88.400449 75.617231,83.087064 81.429137,80.380769 L 86.5,78.019538 133,78.031731 c 44.65351,0.01171 46.67869,0.0932 51,2.052299 5.60646,2.541729 8.59001,5.284202 11.33156,10.41597 1.86482,3.490648 2.13894,5.655396 2.15269,17 l 0.0157,13 -11.25,0.28275 -11.25,0.28275 V 111.03275 101 h -42 -42 v 55.5 55.5 h 42 42 v -10 -10 h 11.5 11.5 l -0.006,11.25 c -0.007,13.64938 -1.02258,17.66602 -5.81097,22.97708 -7.15842,7.9398 -5.54787,7.73184 -59.68345,7.70676 -45.04112,-0.0209 -48.219376,-0.13822 -51.558793,-1.90383 z M 384,156 V 78 h 57 57 v 11 11 H 452.5 407 v 22.5 22.5 h 39 39 v 11 11 H 446 407 V 200.5 234 H 395.5 384 Z"
       id="path223"
       inkscape:connector-curvature="0" />
    <path
       style="fill:#8c8c8c;fill-opacity:1"
       d="M 81.444193,232.11387 C 76.149325,229.70887 70.491136,223.00756 69.103979,217.49866 68.360085,214.54439 68.007163,194.0963 68.021962,154.80718 68.043254,98.279902 68.106201,96.362632 70.08403,92 72.621928,86.401986 75.36038,83.418674 80.5,80.652682 c 3.910768,-2.10466 5.059633,-2.159054 51.5,-2.438304 l 47.5,-0.285622 5.5,2.785622 C 195.33741,85.950033 198.61865,94.213991 197.81918,113 L 197.5,120.5 h -11 -11 l -0.28673,-10.40868 -0.28674,-10.40868 -23.21326,0.65638 c -12.7673,0.36101 -31.65077,0.65741 -41.96327,0.65868 L 91,101 v 55.5 55.5 h 42 42 v -10 -10 h 11.5 11.5 v 11.13398 c 0,13.1447 -1.09523,17.449 -5.85475,23.00943 -6.84025,7.99129 -5.48796,7.81267 -59.14525,7.81267 -44.009368,0 -47.798049,-0.13538 -51.555807,-1.84221 z M 384,156 V 78 h 57 57 v 11 11 H 452.5 407 v 22.5 22.5 h 39 39 v 11 11 H 446 407 V 200.5 234 H 395.5 384 Z"
       id="path221"
       inkscape:connector-curvature="0" />
    <path
       style="fill:#767676;fill-opacity:1"
       d="M 82,232.4057 C 77.453654,230.43645 73.352741,226.49315 70.658417,221.5 68.513868,217.5257 68.5,217.10435 68.5,155.92276 V 94.34552 l 3.026436,-4.896324 c 1.876551,-3.035983 4.886328,-6.046209 7.92158,-7.92276 L 84.34316,78.5 H 132.92158 181.5 l 4.77239,2.805276 c 2.62482,1.542902 5.99982,4.657865 7.5,6.922139 2.58716,3.904881 2.74437,4.828876 3.05319,17.944725 L 197.15117,120 H 186.07558 175 v -10 -10 h -41.94098 c -23.06754,0 -42.127145,0.3375 -42.354672,0.75 -0.227527,0.4125 -0.19486,25.6125 0.0726,56 l 0.48628,55.25 h 41.868382 41.8684 v -10 -10 h 11.61823 11.61825 l -0.42963,12.75 c -0.35602,10.56571 -0.7996,13.46152 -2.58922,16.90327 -2.63722,5.07183 -8.03672,9.67634 -13.13992,11.2053 -2.62581,0.78671 -18.22437,1.12927 -50.19374,1.10229 C 92.703071,233.92779 84.956477,233.68629 82,232.4057 Z M 384,156 V 78 h 57 57 V 88.989912 99.979825 L 452.25,100.23991 406.5,100.5 v 22 22 l 38.75,0.26174 38.75,0.26175 V 156 166.97651 L 445.25,167.23826 406.5,167.5 406.23652,200.75 405.97304,234 H 394.98652 384 Z"
       id="path219"
       inkscape:connector-curvature="0" />
    <path
       style="fill:#606060;fill-opacity:1"
       d="M 81.5,232.10414 C 76.590289,229.83101 72.684516,225.78321 70.303048,220.5 68.64726,216.82669 68.473946,211.88549 68.181,160 68.00555,128.925 68.150065,101.14042 68.502145,98.256498 69.387364,91.005559 74.023851,84.338261 80.473306,81.041895 L 85.446611,78.5 h 48.026699 c 53.1123,0 50.58319,-0.289651 57.45273,6.579883 C 196.0257,90.179544 197,93.795461 197,107.62212 V 120 h -11 -11 v -10 -10 h -41.94098 c -23.06754,0 -42.127145,0.3375 -42.354672,0.75 -0.227527,0.4125 -0.19486,25.6125 0.0726,56 l 0.48628,55.25 h 41.868382 41.8684 v -10 -10 h 11.61823 11.61825 l -0.42963,12.75 c -0.35602,10.56571 -0.7996,13.46152 -2.58922,16.90327 -2.63722,5.07183 -8.03672,9.67634 -13.13992,11.2053 -2.62196,0.78556 -18.27126,1.13458 -50.19374,1.11947 C 88.869879,233.95767 85.209393,233.82153 81.5,232.10414 Z M 384,156 V 78 h 57 57 V 88.989912 99.979825 L 452.25,100.23991 406.5,100.5 406.23087,122.75 405.96174,145 H 444.98087 484 v 10.98826 10.98825 L 445.25,167.23826 406.5,167.5 406.23652,200.75 405.97304,234 H 394.98652 384 Z"
       id="path217"
       inkscape:connector-curvature="0" />
    <path
       style="fill:#494949;fill-opacity:1"
       d="M 83.238879,232.68419 C 78.127986,230.80075 72.933896,226.11123 70.97844,221.61477 69.337119,217.84064 69.160459,212.45011 68.844489,156.5 L 68.5,95.5 70.800336,90.830296 c 2.829333,-5.743575 7.978467,-9.806495 14.607515,-11.526048 6.567956,-1.703706 88.435379,-1.876126 95.090809,-0.200269 5.5089,1.387157 12.21021,7.045346 14.61521,12.340214 1.46351,3.222074 1.84672,6.57398 1.86417,16.305807 L 197,120 H 186 175 V 109.98915 99.978294 L 132.75,100.23915 90.5,100.5 90.183976,129 c -0.173813,15.675 -0.01,40.76734 0.364063,55.76076 l 0.680088,27.26077 42.135933,-0.26077 L 175.5,211.5 l 0.28621,-9.75 0.28621,-9.75 H 186.5 196.92758 l 0.28621,9.75 c 0.15741,5.3625 -0.0531,11.775 -0.46791,14.25 -0.99625,5.94484 -5.2901,11.91389 -10.79028,15 l -4.4556,2.5 -47.5,0.19298 c -34.927762,0.1419 -48.363149,-0.1251 -50.761121,-1.00879 z M 384,156 V 78 h 57 57 v 11 11 h -46 -46 v 22.5 22.5 h 39 39 v 11 11 h -39 -39 v 33.5 33.5 h -11 -11 z"
       id="path215"
       inkscape:connector-curvature="0" />
    <path
       style="fill:#333333;fill-opacity:1"
       d="M 83.728459,232.69209 C 78.396912,231.00692 73.573705,226.81656 71.111724,221.73079 69.033262,217.43726 69,216.40431 69,156.15216 c 0,-49.36976 0.263188,-61.839124 1.36,-64.434279 1.724446,-4.080193 6.035912,-8.36905 10.915851,-10.85861 3.586855,-1.829877 6.502647,-1.951543 51.513109,-2.149469 47.17492,-0.207445 47.75599,-0.185548 51.71104,1.948615 9.94985,5.368983 12.5,10.940438 12.5,27.309463 V 120 h -10.35754 -10.35755 l -0.64245,-6.14669 C 175.28911,110.47263 175,105.97263 175,103.85331 V 100 H 132.5 90 v 56 56 h 43 43 v -10 -10 h 10.57558 10.57559 l -0.32559,13.82786 c -0.30882,13.11585 -0.46603,14.03984 -3.05319,17.94472 -1.50018,2.26428 -4.87518,5.37924 -7.5,6.92214 L 181.5,233.5 l -47,0.19209 c -34.08345,0.1393 -48.036496,-0.13552 -50.771541,-1 z M 384,156 V 78 h 57 57 v 11 11 h -46 -46 v 22.5 22.5 h 39 39 v 11 11 h -39 -39 v 33.5 33.5 h -11 -11 z"
       id="path213"
       inkscape:connector-curvature="0" />
  </g>
  <g
     id="g324"
     transform="matrix(0.5266592,0.02743101,-0.02558326,0.49118351,146.052,30.607117)">
    <path
       style="fill:#d4aa00;fill-opacity:1;stroke-width:0.41263363"
       d="m 405.6172,389.83344 c -2.54977,0.53886 -8.97237,-1.22027 -26.25819,-7.19203 -8.96678,-3.09776 -10.21771,-3.89038 -12.0832,-7.65619 -3.76499,-7.60028 -17.95808,-40.21537 -39.83779,-91.54551 l -17.68046,-41.47862 -2.71799,-0.41384 c -1.49489,-0.22761 -2.71993,-0.48739 -2.72231,-0.57729 -0.002,-0.0899 1.71614,-1.47267 3.81893,-3.07283 6.94484,-5.28484 14.89403,-13.49517 19.86378,-20.51633 8.17728,-11.55271 13.26746,-26.49896 14.21359,-41.73528 0.30912,-4.97805 -0.67623,-15.77163 -1.92442,-21.08018 -3.72869,-15.85813 -12.73658,-31.32542 -25.03971,-42.99526 -3.74206,-3.54943 -12.46418,-9.87255 -17.92239,-12.99286 -7.09261,-4.05466 -7.06611,-3.82264 -0.58503,-5.12163 14.19011,-2.8441 30.79673,-1.61245 45.96011,3.40868 7.93325,2.62698 9.78968,3.61248 18.91894,10.0432 12.25438,8.63209 16.55347,12.72763 22.00193,20.9602 6.79885,10.27297 10.36209,20.31793 11.62725,32.7778 1.8042,17.76862 -2.30225,32.44056 -13.70171,48.95481 -1.78435,2.58495 -3.41565,5.21441 -3.62512,5.84324 -0.24203,0.7266 -0.04,1.83747 0.55437,3.04781 0.51437,1.04746 1.08975,2.62992 1.27862,3.51657 0.60671,2.84821 0.23859,3.57653 -4.60217,9.10524 l -4.39799,5.02299 1.56943,3.50696 1.56943,3.50695 7.23778,3.62049 c 8.20018,4.1019 12.15542,6.66212 12.95995,8.38894 0.96828,2.07825 0.14771,4.14162 -5.54458,13.94216 -5.6021,9.64526 -5.3712,9.00942 -4.39316,12.09792 0.93261,2.94505 2.68325,6.69623 3.35403,7.18684 0.23774,0.17385 3.5039,1.21086 7.25817,2.30443 8.52879,2.48431 9.79455,3.1337 10.57989,5.42797 0.32043,0.93611 0.413,2.88822 0.20572,4.33801 -1.03776,7.25818 -0.82156,9.3288 1.32745,12.71363 0.98275,1.54789 1.47102,1.93925 4.98595,3.99634 9.32865,5.45954 10.07033,6.74852 8.45388,14.69208 -0.65956,3.24119 -0.23637,5.09739 3.02484,13.26782 1.56188,3.91304 2.9622,7.9021 3.11182,8.86459 0.31397,2.0197 -0.032,2.76518 -7.5519,16.27294 -9.43759,16.95239 -10.86708,19.05765 -13.28775,19.56923 z m -9.63024,-29.77446 c -0.0972,-0.49593 -1.08688,-3.12612 -2.19933,-5.84487 -4.24309,-10.36983 -49.37872,-116.15512 -49.7674,-116.64088 -0.27414,-0.3426 -1.95756,-0.10093 -5.11816,0.73476 -2.59031,0.6849 -4.9523,1.33269 -5.24887,1.43954 -0.6242,0.22489 -0.25599,1.12642 15.6951,38.4289 30.8507,72.14599 36.58544,85.2144 37.7829,86.10027 1.07503,0.79529 3.61978,0.69542 5.54034,-0.21743 1.83816,-0.87367 3.52845,-2.91314 3.31542,-4.00029 z m -167.05369,35.9633 c -8.54696,4.98778 -16.62825,9.56241 -17.95843,10.16584 -3.4336,1.55766 -4.60738,1.084 -9.67207,-3.90294 -4.7724,-4.69916 -15.33374,-16.37614 -17.58223,-19.43953 -3.29344,-4.48704 -4.51927,4.77523 14.31186,-108.13932 l 6.58822,-39.50404 -6.24596,-4.7184 c -10.80404,-8.16171 -17.15248,-15.61733 -22.81828,-26.79783 -6.37259,-12.57522 -8.63625,-23.10299 -7.80825,-36.31441 0.62575,-9.98454 4.44878,-22.8904 8.92547,-30.1308 2.1799,-3.52567 10.60718,-13.54915 15.26593,-18.15744 4.05491,-4.01098 8.3422,-7.32715 11.99583,-9.27862 1.45248,-0.7758 2.32395,-0.10329 5.67886,4.38237 3.92829,5.25229 9.65601,11.54755 14.04193,15.43328 5.81777,5.15429 5.7196,5.02532 6.73487,8.84727 1.82764,6.8801 4.09435,10.01153 10.44236,14.42603 3.89697,2.71001 4.12893,2.81554 7.7477,3.52494 7.20454,1.41232 15.16593,-0.14997 20.23706,-3.97119 2.27885,-1.71717 5.67387,-5.55223 5.2154,-5.8914 -0.18777,-0.13891 -2.40226,-0.66353 -4.92108,-1.16582 -23.44596,-4.67546 -43.59194,-17.84103 -55.61029,-36.34181 -10.37633,-15.97309 -14.35265,-34.6738 -11.2828,-53.06314 2.16016,-12.94005 8.44853,-26.28513 16.95448,-35.98056 20.80552,-23.7149802 54.83107,-34.51334 86.79193,-27.5443002 17.86663,3.89581 32.9593,12.52268 46.48174,26.5686802 7.49235,7.78243 14.77384,21.41259 17.57991,32.90764 2.00922,8.23075 2.62423,17.94943 1.61196,25.47285 -1.02344,7.60652 -4.12908,18.68602 -5.75853,20.54377 -0.57825,0.65928 -0.87987,0.59634 -3.38829,-0.7071 -1.51444,-0.78695 -4.40953,-2.21905 -6.43355,-3.18246 -2.02401,-0.9634 -3.69179,-1.93522 -3.70618,-2.15961 -0.0144,-0.22439 0.26975,-1.10306 0.63145,-1.95259 1.13016,-2.65451 3.00859,-11.31633 3.41945,-15.76774 2.14244,-23.21234 -9.58345,-45.6081 -30.65067,-58.54096 -11.0912,-6.8087302 -22.46594,-10.4832002 -34.71164,-11.2131702 -5.75636,-0.34315 -17.80681,0.81545 -23.273,2.23759 -11.84609,3.082 -21.3434,7.8018802 -28.27196,14.0503302 -4.48652,4.04612 -13.7752,15.34168 -16.09786,19.5759 -6.42694,11.71634 -8.49253,27.03852 -5.50435,40.83022 2.22007,10.24651 6.48849,18.82803 13.78544,27.71514 4.1696,5.07825 14.47709,12.94245 21.93634,16.73657 4.44818,2.26254 11.20961,4.54243 16.95258,5.71626 7.51664,1.53635 7.82397,1.40169 6.11922,-2.68118 -1.87653,-4.49428 -3.26163,-6.49118 -6.18935,-8.92319 -5.70427,-4.73843 -11.42813,-6.6266 -18.76842,-6.19128 -2.34269,0.13893 -4.75457,0.10455 -5.35972,-0.0764 -3.68007,-1.10046 -14.94895,-12.82433 -13.69776,-14.25083 0.44087,-0.50264 8.99401,-1.41965 14.03656,-1.5049 13.94425,-0.23575 29.48917,3.0784 40.5241,8.63965 4.83298,2.43567 17.00315,10.97735 21.12246,14.82488 9.37004,8.75183 16.81601,21.18427 20.35603,33.98823 4.84372,17.51934 2.37504,37.07479 -6.58388,52.15367 -2.17393,3.65897 -3.52079,5.38181 -9.93446,12.70775 l -7.4196,8.47491 -4.63583,3.17155 c -5.49254,3.75766 -10.76909,6.65181 -17.51597,9.60739 l -4.93175,2.16043 -0.21018,1.67106 c -0.35294,2.8062 -1.42917,6.99678 -1.94916,7.58963 -0.51193,0.58366 -6.10833,2.69311 -11.36511,4.28386 l -3.04841,0.92248 -0.66555,3.35321 c -0.81357,4.09894 -0.5774,4.7408 4.60689,12.5203 2.10066,3.15223 4.23421,6.56883 4.74122,7.59245 1.25901,2.5418 1.25934,4.79239 9.3e-4,6.22712 -0.54791,0.62469 -5.30319,3.63511 -10.56727,6.68982 -5.26408,3.05471 -9.95846,5.99571 -10.43195,6.53555 -0.74512,0.84952 -1.33552,3.65608 -2.05032,9.74648 -0.0351,0.29888 1.94273,2.51074 4.39513,4.91524 6.09118,5.97221 6.97752,7.06206 7.13369,8.77164 0.20555,2.25012 -0.41425,3.42397 -3.91565,7.41598 -3.42134,3.90074 -3.49131,4.04493 -3.91317,8.06428 -0.29343,2.79575 0.15748,4.20795 2.97783,9.32626 3.74084,6.78878 3.64424,8.16505 -0.92581,13.19107 -1.97195,2.16869 -3.12101,3.73892 -3.54568,4.84529 -0.34555,0.90024 -1.28302,5.52042 -2.08328,10.26705 -0.80025,4.74663 -1.6679,8.85571 -1.92811,9.13131 -0.26021,0.27558 -7.46606,4.58198 -16.01302,9.56975 z m -9.65489,-43.44846 c 3.43562,-19.33191 17.70339,-104.56769 17.65076,-105.44575 -0.0152,-0.25325 -6.29314,-1.98406 -8.95337,-2.46842 l -1.99842,-0.36387 -0.37497,2.51537 c -0.20624,1.38345 -2.54348,15.4208 -5.19388,31.19412 -10.19878,60.69594 -14.2604,86.2659 -14.94029,94.05683 -0.32946,3.7752 -0.27183,4.12595 0.83693,5.09446 1.45415,1.2702 4.97118,1.87239 6.78509,1.16175 1.16783,-0.45752 1.27447,-0.73402 2.54706,-6.60378 0.73051,-3.36945 2.369,-11.98277 3.64109,-19.14071 z"
       id="path332"
       inkscape:connector-curvature="0" />
  </g>
</svg>
